<svg xmlns="http://www.w3.org/2000/svg" width="24" height="24" viewBox="0 0 24 24" fill="none" stroke="currentColor" stroke-width="2" stroke-linecap="round" stroke-linejoin="round"><path d="M20 20a2 2 0 0 0 2-2V8a2 2 0 0 0-2-2h-7.9a2 2 0 0 1-1.69-1.07l-.26-.55A2 2 0 0 0 8.45 3.38L8.31 3.4a2 2 0 0 0-1.24.53L2.14 8.87a2 2 0 0 0-.14 2.7l.14.15a2 2 0 0 0 2.7.14l.15-.14a2 2 0 0 1 2.7 0l.15.14a2 2 0 0 0 2.7-.14l.15-.14a2 2 0 0 1 2.7 0l.15.14a2 2 0 0 0 2.7-.14l.15-.14a2 2 0 0 1 2.7 0l.15.14a2 2 0 0 0 2.7-.14"/></svg>